<?xml version="1.0" encoding="UTF-8"?>
<svg width="1024px" height="1024px" viewBox="0 0 1024 1024" version="1.1" xmlns="http://www.w3.org/2000/svg" xmlns:xlink="http://www.w3.org/1999/xlink">
    <!-- Generator: Sketch 55.2 (78181) - https://sketchapp.com -->
    <title>fe566</title>
    <desc>Created with Sketch.</desc>
    <g id="fe566" stroke="none" stroke-width="1" fill="none" fill-rule="evenodd">
        <path d="M488.271196,787.692504 C480.759086,795.347235 462.239293,812.193181 433.893336,824.667652 C414.588954,833.163112 383.054183,833.163112 350.515826,824.667652 L294.660837,808.460114 L321.19995,861.169043 C384.440311,880.826605 430.077845,878.689591 461.883304,861.169043 C484.310303,848.81477 496.670266,838.079661 502.118774,832.586185 C502.233384,833.931713 502.298946,835.268296 502.298946,836.591432 C502.298946,842.57181 511.576491,844.395159 506.873544,867.385172 C502.368782,889.40637 458.920576,905.614997 443.077146,917.688645 C431.082534,926.829262 409.75902,931.08156 395.588071,937.463448 C388.105442,940.83325 358.499348,949.690076 350.661722,950.440484 C321.927097,953.19166 284.670376,968.559172 277.089081,974.718629 C269.507785,980.878087 205.325784,1024 200.307095,1024 C173.825764,1024 44.2892101,1024 -5.68434189e-14,1024 L-5.68434189e-14,2.84217094e-13 C52.3477122,1 54.1091113,30.5314568 70.8160543,42.8146561 C87.5229973,55.0978554 111.356405,96.8435972 122.963617,109.57813 C145.974477,131.571742 166.064704,150.810704 183.234298,167.295016 C208.770477,191.811982 232.825657,212.490893 262.495972,234.389115 C286.997973,252.472856 294.956264,266.009951 314.107694,291.248087 C317.621136,295.878171 349.645776,332.700211 357.419586,345.980796 C368.04238,364.128518 383.211079,383.492935 392.848055,399.646019 C402.48503,415.799104 428.39111,449.242043 419.785175,466.727373 C411.179241,484.212702 407.346904,490.886031 400.512011,500.077757 C396.824122,505.037317 377.491965,513.127204 372.825006,518.755227 C364.514683,528.776891 347.665273,528.776891 344.812431,534.046639 C334.336018,553.398591 336.661484,594.35268 344.812431,605.986487 C350.661722,614.335152 395.588071,630.307685 426.909912,693.597051 C456.599577,736.750737 477.053339,768.115888 488.271196,787.692504 Z M497.931072,807.361721 L498.208265,808.3653 C498.131537,808.050775 498.03914,807.71625 497.931073,807.361723 Z M1,550.377506 C16.7423991,529.2474 29.0411933,510.862721 37.8963824,495.223468 C49.0423181,475.538501 56.3492977,444.015837 37.8963824,433.631879 C17.4438954,422.122707 5.14510123,422.122707 1,433.631879 L1,550.377506 Z M389,759 C403.911688,759 416,746.911688 416,732 C416,717.088312 403.911688,705 389,705 C374.088312,705 362,717.088312 362,732 C362,746.911688 374.088312,759 389,759 Z" id="Combined-Shape" fill="#000000"></path>
    </g>
</svg>