<?xml version="1.0" encoding="UTF-8"?>
<svg width="1024px" height="1024px" viewBox="0 0 1024 1024" version="1.1" xmlns="http://www.w3.org/2000/svg" xmlns:xlink="http://www.w3.org/1999/xlink">
    <!-- Generator: Sketch 55.2 (78181) - https://sketchapp.com -->
    <title>fe567</title>
    <desc>Created with Sketch.</desc>
    <g id="fe567" stroke="none" stroke-width="1" fill="none" fill-rule="evenodd">
        <path d="M1004.2712,787.692504 C996.759086,795.347235 978.239293,812.193181 949.893336,824.667652 C930.588954,833.163112 899.054183,833.163112 866.515826,824.667652 L810.660837,808.460114 L837.19995,861.169043 C900.440311,880.826605 946.077845,878.689591 977.883304,861.169043 C1000.3103,848.81477 1012.67027,838.079661 1018.11877,832.586185 C1018.23338,833.931713 1018.29895,835.268296 1018.29895,836.591432 C1018.29895,842.57181 1027.57649,844.395159 1022.87354,867.385172 C1018.36878,889.40637 974.920576,905.614997 959.077146,917.688645 C947.082534,926.829262 925.75902,931.08156 911.588071,937.463448 C904.105442,940.83325 874.499348,949.690076 866.661722,950.440484 C837.927097,953.19166 800.670376,968.559172 793.089081,974.718629 C785.507785,980.878087 721.325784,1024 716.307095,1024 C689.825764,1024 560.28921,1024 516,1024 L516.203853,0 C568.551566,1 570.109111,30.5314568 586.816054,42.8146561 C603.522997,55.0978554 627.356405,96.8435972 638.963617,109.57813 C661.974477,131.571742 682.064704,150.810704 699.234298,167.295016 C724.770477,191.811982 748.825657,212.490893 778.495972,234.389115 C802.997973,252.472856 810.956264,266.009951 830.107694,291.248087 C833.621136,295.878171 865.645776,332.700211 873.419586,345.980796 C884.04238,364.128518 899.211079,383.492935 908.848055,399.646019 C918.48503,415.799104 944.39111,449.242043 935.785175,466.727373 C927.179241,484.212702 923.346904,490.886031 916.512011,500.077757 C912.824122,505.037317 893.491965,513.127204 888.825006,518.755227 C880.514683,528.776891 863.665273,528.776891 860.812431,534.046639 C850.336018,553.398591 852.661484,594.35268 860.812431,605.986487 C866.661722,614.335152 911.588071,630.307685 942.909912,693.597051 C972.599577,736.750737 993.053339,768.115888 1004.2712,787.692504 Z M1013.93107,807.361721 L1014.20827,808.3653 C1014.13154,808.050775 1014.03914,807.71625 1013.93107,807.361723 Z M517,550.377506 C532.742399,529.2474 545.041193,510.862721 553.896382,495.223468 C565.042318,475.538501 572.349298,444.015837 553.896382,433.631879 C533.443895,422.122707 521.145101,422.122707 517,433.631879 L517,550.377506 Z M905,759 C919.911688,759 932,746.911688 932,732 C932,717.088312 919.911688,705 905,705 C890.088312,705 878,717.088312 878,732 C878,746.911688 890.088312,759 905,759 Z" id="Combined-Shape" fill="#000000" transform="translate(770.101927, 512.000000) scale(-1, 1) translate(-770.101927, -512.000000) "></path>
    </g>
</svg>