<?xml version="1.0" encoding="UTF-8"?>
<svg width="1024px" height="1024px" viewBox="0 0 1024 1024" version="1.1" xmlns="http://www.w3.org/2000/svg" xmlns:xlink="http://www.w3.org/1999/xlink">
    <!-- Generator: Sketch 55.2 (78181) - https://sketchapp.com -->
    <title>fe568</title>
    <desc>Created with Sketch.</desc>
    <g id="fe568" stroke="none" stroke-width="1" fill="none" fill-rule="evenodd">
        <path d="M492.271196,787.692504 C484.759086,795.347235 466.239293,812.193181 437.893336,824.667652 C418.588954,833.163112 387.054183,833.163112 354.515826,824.667652 L298.660837,808.460114 L325.19995,861.169043 C388.440311,880.826605 434.077845,878.689591 465.883304,861.169043 C488.310303,848.81477 500.670266,838.079661 506.118774,832.586185 C506.233384,833.931713 506.298946,835.268296 506.298946,836.591432 C506.298946,842.57181 515.576491,844.395159 510.873544,867.385172 C506.368782,889.40637 462.920576,905.614997 447.077146,917.688645 C435.082534,926.829262 413.75902,931.08156 399.588071,937.463448 C392.105442,940.83325 362.499348,949.690076 354.661722,950.440484 C325.927097,953.19166 288.670376,968.559172 281.089081,974.718629 C273.507785,980.878087 209.325784,1024 204.307095,1024 C177.825764,1024 48.2892101,1024 4,1024 L4,0 C56.3477122,1 58.1091113,30.5314568 74.8160543,42.8146561 C91.5229973,55.0978554 115.356405,96.8435972 126.963617,109.57813 C149.974477,131.571742 170.064704,150.810704 187.234298,167.295016 C212.770477,191.811982 236.825657,212.490893 266.495972,234.389115 C290.997973,252.472856 298.956264,266.009951 318.107694,291.248087 C321.621136,295.878171 353.645776,332.700211 361.419586,345.980796 C372.04238,364.128518 387.211079,383.492935 396.848055,399.646019 C406.48503,415.799104 432.39111,449.242043 423.785175,466.727373 C415.179241,484.212702 411.346904,490.886031 404.512011,500.077757 C400.824122,505.037317 381.491965,513.127204 376.825006,518.755227 C368.514683,528.776891 351.665273,528.776891 348.812431,534.046639 C338.336018,553.398591 340.661484,594.35268 348.812431,605.986487 C354.661722,614.335152 399.588071,630.307685 430.909912,693.597051 C460.599577,736.750737 481.053339,768.115888 492.271196,787.692504 Z M501.931072,807.361721 L502.208265,808.3653 C502.131537,808.050775 502.03914,807.71625 501.931073,807.361723 Z M5,550.377506 C20.7423991,529.2474 33.0411933,510.862721 41.8963824,495.223468 C53.0423181,475.538501 60.3492977,444.015837 41.8963824,433.631879 C21.4438954,422.122707 9.14510123,422.122707 5,433.631879 L5,550.377506 Z M393,759 C407.911688,759 420,746.911688 420,732 C420,717.088312 407.911688,705 393,705 C378.088312,705 366,717.088312 366,732 C366,746.911688 378.088312,759 393,759 Z" id="Combined-Shape" fill="#000000" transform="translate(258.101927, 512.000000) scale(-1, 1) translate(-258.101927, -512.000000) "></path>
    </g>
</svg>